<?xml version="1.0" encoding="utf-8"?>
<!-- Generator: Adobe Illustrator 22.0.1, SVG Export Plug-In . SVG Version: 6.00 Build 0)  -->
<svg version="1.1" id="Layer_1" xmlns="http://www.w3.org/2000/svg" xmlns:xlink="http://www.w3.org/1999/xlink" x="0px" y="0px"
	 viewBox="0 0 196.1 98.4" style="enable-background:new 0 0 196.1 98.4;" xml:space="preserve">
<style type="text/css">
	.st0{fill:#111415;}
	.st1{fill:#050A0D;}
</style>
<path class="st0" d="M195.1,7.9c0,3.7-3,6.6-6.6,6.6c-3.7,0-6.7-3-6.7-6.6c0-3.7,3-6.6,6.7-6.6C192.1,1.3,195.1,4.2,195.1,7.9
	L195.1,7.9z"/>
<polygon class="st0" points="111.2,1.5 116,1.5 116,80.9 111.2,80.9 111.2,1.5 "/>
<polygon class="st0" points="186.1,18.5 190.8,18.5 190.8,97.9 186.1,97.9 186.1,18.5 "/>
<polygon class="st0" points="56,19.5 100.1,19.5 100.1,24.3 56,24.3 56,19.5 "/>
<polygon class="st0" points="56,47.4 100.1,47.4 100.1,52.1 56,52.1 56,47.4 "/>
<polygon class="st0" points="56,75 100.1,75 100.1,79.8 56,79.8 56,75 "/>
<path class="st1" d="M30.3,76.4H5V52h25.3c7.1,0,12.9,5.5,12.9,12.2S37.4,76.4,30.3,76.4L30.3,76.4z M5,23h25.3
	c7.1,0,12.9,5.5,12.9,12.2c0,6.7-5.8,12.2-12.9,12.2H5V23L5,23z M39,49.7c5.2-2.9,8.8-8.3,8.8-14.5c0-9.2-7.8-16.7-17.4-16.7H0.5
	v28.9V52v28.9h29.8c9.6,0,17.4-7.5,17.4-16.7C47.7,58,44.2,52.6,39,49.7L39,49.7z"/>
<path class="st1" d="M156.4,46.3l-6.3-1.6c-6.1-1.6-14.8-3.1-14.8-11.9c0-5.5,4.4-10.9,16.3-10.9c9.4,0,13.6,1.8,16.8,8.3h4.8l0.1,0
	c-3.5-8.5-10.8-12.8-21.7-12.8c-15.4,0-20.9,8.1-20.9,15.7c0,10.4,8.3,13.9,17.2,16.2l7.5,1.9c10.3,2.6,14.5,6.4,14.5,13.3
	c0,7-5.8,13.2-18.9,13.2c-12,0-15.3-4.2-18.6-11.6h-4.9c2.6,10.9,10.5,16.4,23.6,16.4c8.4,0,12.9-2.3,15.9-4.4
	c6.8-4.7,7.8-10.7,7.8-13.8C174.8,55.6,169.3,49.7,156.4,46.3L156.4,46.3z"/>
</svg>
